<svg xmlns="http://www.w3.org/2000/svg" version="1.1" x="0" y="0" width="40" height="40" viewBox="0 0 40 40" xml:space="preserve"><path d="M37.3 10c-5.5-9.6-17.8-12.8-27.3-7.3C0.4 8.2-2.8 20.4 2.7 30c5.5 9.6 17.8 12.8 27.3 7.3C39.6 31.8 42.8 19.6 37.3 10zM28 33.9c-7.7 4.4-17.4 1.8-21.9-5.9 -4.4-7.7-1.8-17.4 5.9-21.9 7.7-4.4 17.4-1.8 21.9 5.9C38.3 19.7 35.7 29.4 28 33.9zM27.2 19.2l-10.5-6.1c-1-0.6-1.7-0.1-1.7 1l0.1 12.1c0 1.1 0.8 1.6 1.7 1l10.4-6C28.2 20.6 28.2 19.7 27.2 19.2z" fill="#aaa"/></svg>